<?xml version="1.0" standalone="no"?>
<!DOCTYPE svg PUBLIC "-//W3C//DTD SVG 20010904//EN"
 "http://www.w3.org/TR/2001/REC-SVG-20010904/DTD/svg10.dtd">
<svg version="1.0" xmlns="http://www.w3.org/2000/svg"
 width="151.000000pt" height="151.000000pt" viewBox="0 0 151.000000 151.000000"
 preserveAspectRatio="xMidYMid meet">
<metadata>
Created by potrace 1.11, written by Peter Selinger 2001-2013
</metadata>
<g transform="translate(0.000000,151.000000) scale(0.100000,-0.100000)"
fill="#000000" stroke="none">
<path d="M682 1471 c-11 -6 131 -55 143 -49 9 6 34 -38 35 -61 0 -14 8 -34 17
-45 10 -12 11 -15 3 -8 -27 24 -34 12 -8 -15 39 -42 69 -108 74 -166 9 -87 12
-94 74 -153 59 -58 59 -58 41 -79 -22 -23 -27 -43 -17 -67 5 -10 2 -26 -8 -39
-11 -16 -12 -27 -5 -40 6 -13 6 -25 -3 -38 -9 -15 -10 -30 -2 -59 6 -21 8 -44
6 -51 -5 -16 -41 -29 -99 -36 -143 -17 -148 -21 -147 -98 1 -62 26 -122 91
-220 46 -70 181 -217 199 -217 5 0 8 21 8 46 -3 114 64 334 157 512 79 151
101 221 101 325 2 316 -244 565 -557 565 -50 0 -97 -3 -103 -7z"/>
<path d="M620 1436 c0 -3 9 -10 20 -16 11 -6 20 -8 20 -6 0 3 -9 10 -20 16
-11 6 -20 8 -20 6z"/>
<path d="M678 1403 c6 -2 18 -2 25 0 6 3 1 5 -13 5 -14 0 -19 -2 -12 -5z"/>
<path d="M779 1389 c14 -5 30 -13 36 -17 6 -4 2 1 -8 11 -11 9 -27 17 -36 16
-10 0 -7 -4 8 -10z"/>
<path d="M418 1383 c-9 -3 -20 -13 -23 -23 -5 -14 -18 -20 -53 -23 l-47 -3 53
-2 c32 -1 52 -6 52 -14 0 -6 -14 -33 -31 -59 -28 -43 -34 -48 -62 -45 -53 5
-92 82 -55 107 18 12 -31 42 -57 35 -20 -5 -25 -13 -25 -36 0 -25 5 -32 28
-36 16 -4 36 -20 50 -41 20 -31 20 -36 7 -49 -35 -35 -9 -95 43 -96 25 -1 36
-8 53 -36 16 -29 18 -40 10 -59 -16 -36 -13 -68 9 -88 39 -35 110 -10 110 40
0 18 11 25 60 40 33 10 58 20 56 22 -2 3 -29 -3 -60 -13 -50 -16 -58 -16 -71
-3 -13 13 -12 19 7 54 12 22 27 51 34 64 9 17 22 24 48 26 29 1 41 -4 66 -31
16 -18 25 -36 20 -39 -6 -3 -10 -15 -10 -26 0 -10 -5 -19 -11 -19 -7 0 1 -10
16 -22 34 -27 80 -28 100 -2 34 45 6 99 -53 97 -47 -2 -97 39 -82 67 23 43
-14 94 -63 87 -22 -3 -32 3 -48 24 -22 31 -24 45 -6 52 10 4 10 6 0 6 -7 1
-13 8 -13 16 0 17 -29 33 -52 28z m61 -105 c15 -19 19 -34 14 -61 -3 -22 -1
-43 6 -51 13 -16 5 -40 -33 -101 -19 -31 -31 -40 -54 -41 -25 -1 -33 5 -51 36
-17 31 -19 41 -9 68 8 22 9 37 1 54 -9 19 -5 31 25 73 40 58 69 65 101 23z"/>
<path d="M629 1334 c-7 -9 -22 -14 -36 -11 -12 2 -20 0 -17 -4 3 -5 10 -9 16
-9 14 0 66 -56 71 -78 4 -13 5 -12 6 4 0 12 8 27 16 34 21 18 19 57 -4 70 -27
14 -36 13 -52 -6z"/>
<path d="M275 1330 c-3 -5 -1 -10 4 -10 6 0 11 5 11 10 0 6 -2 10 -4 10 -3 0
-8 -4 -11 -10z"/>
<path d="M509 1327 c5 -5 19 -7 32 -5 20 3 19 5 -9 9 -20 3 -29 2 -23 -4z"/>
<path d="M673 1175 c0 -22 2 -30 4 -17 2 12 2 30 0 40 -3 9 -5 -1 -4 -23z"/>
<path d="M226 964 c-10 -33 4 -154 25 -217 11 -33 45 -107 76 -164 30 -57 66
-133 78 -169 l23 -66 10 34 c14 44 53 220 55 247 1 21 5 22 57 17 l55 -6 -70
26 c-127 48 -224 136 -265 241 -28 70 -36 81 -44 57z"/>
</g>
</svg>
