<?xml version="1.0" encoding="utf-8"?>
<!-- Generator: Adobe Illustrator 16.0.0, SVG Export Plug-In . SVG Version: 6.00 Build 0)  -->
<!DOCTYPE svg PUBLIC "-//W3C//DTD SVG 1.1//EN" "http://www.w3.org/Graphics/SVG/1.1/DTD/svg11.dtd">
<svg version="1.1" id="Layer_1" xmlns="http://www.w3.org/2000/svg" xmlns:xlink="http://www.w3.org/1999/xlink" x="0px" y="0px"
	 width="80.49px" height="126.301px" viewBox="0 0 80.49 126.301" enable-background="new 0 0 80.49 126.301" xml:space="preserve">
<g>
	<path fill="#FFFFFF" d="M0,40.236c-0.004,6.314,1.483,12.54,4.342,18.169c-0.036,0.019-0.089,0.036-0.125,0.054
		c3.233,5.165,6.001,10.605,8.272,16.26c3.014,7.52,5.125,15.369,6.289,23.387H18.8v6.234h12.663
		c8.612-14.133,3.823-34.554,5.11-44.631c2.555,7.521,6.343,14.133,12.81,18.957c-0.059-0.333-0.199-0.646-0.41-0.911
		c-5.574-7.61-7.736-16.223-7.719-25.531c0.018-7.808,2.02-15.2,4.127-22.619C47.74,21.3,49.2,12.864,47.848,4.181
		c-0.162-1.037-0.356-2.055-0.625-3.573C44.921,0.206,42.59,0.003,40.254,0C18.025-0.011-0.001,18.007,0,40.236L0,40.236z"/>
	<path fill="#FFFFFF" d="M80.49,40.235c0.006-5.991-1.331-11.907-3.913-17.313c-5.61-11.74-16.542-20.051-29.354-22.315
		c0.344,0.375,0.666,0.769,0.965,1.179c3.733,6.521,6.914,13.311,8.5,20.69c0.967,5.37,4.312,10.013,9.099,12.631
		c4.556,2.592,4.521,2.894,0.8,6.718c-1.32,1.358-1.751,2.448-0.089,3.859c1.286,1.072,1.251,2.287-0.089,3.448
		c-1.161,1-2.233,2.073-3.484,3.234c0.952,0.17,1.895,0.39,2.823,0.66c1.715,0.59,2.3,1.93,1.215,3.323
		c-1.411,1.8-1.376,3.413-0.519,5.467c1.27,3.075-0.106,5.218-3.414,5.681c-1.35,0.106-2.707,0.09-4.055-0.054
		c-1.466-0.071-2.949-0.231-4.432-0.34c-0.061,0.276-0.091,0.56-0.089,0.84c0.071,0.467,0.179,0.931,0.286,1.396
		c0.643,2.377-1.018,23.478,6.986,35.036v-6.234h0.018c1.925-13.277,6.436-26.05,13.277-37.592
		C78.604,54.379,80.49,47.37,80.49,40.235L80.49,40.235z"/>
	<path fill="#FFFFFF" d="M60.229,108.29c0.857,0.001,1.554,0.696,1.555,1.554c-0.001,0.858-0.696,1.555-1.555,1.555H20.135
		c-0.858,0-1.553-0.695-1.554-1.555c0.001-0.857,0.696-1.553,1.554-1.554"/>
	<path fill="#FFFFFF" d="M55.779,118.85H24.58c-0.858-0.002-1.553-0.697-1.554-1.555c0-0.857,0.696-1.553,1.554-1.554h31.213
		c0.857,0.001,1.555,0.696,1.555,1.554C57.332,118.152,56.637,118.84,55.779,118.85L55.779,118.85z"/>
	<path fill="#FFFFFF" d="M49.794,126.301H30.587c-0.858-0.002-1.553-0.697-1.554-1.555c0-0.857,0.696-1.555,1.554-1.555h19.207
		c0.858,0,1.554,0.695,1.554,1.555C51.341,125.602,50.648,126.293,49.794,126.301z"/>
</g>
</svg>
