<?xml version="1.0" encoding="utf-8"?>
<!-- Generator: Adobe Illustrator 16.0.0, SVG Export Plug-In . SVG Version: 6.00 Build 0)  -->
<!DOCTYPE svg PUBLIC "-//W3C//DTD SVG 1.1//EN" "http://www.w3.org/Graphics/SVG/1.1/DTD/svg11.dtd">
<svg version="1.1" id="Layer_1" xmlns="http://www.w3.org/2000/svg" xmlns:xlink="http://www.w3.org/1999/xlink" x="0px" y="0px"
	 width="550.8px" height="193.9px" viewBox="0 0 550.8 193.9" enable-background="new 0 0 550.8 193.9" xml:space="preserve">
<title>wec_text_small_white</title>
<g id="Layer_2">
	<g id="Layer_1-2">
		<path d="M274.86,78.15h82.31c-0.873-12.667-5.116-22.29-12.729-28.87s-17.06-9.863-28.34-9.85h-0.19
			c-12.26,0-21.766,3.479-28.52,10.439s-10.994,16.387-12.72,28.28H274.86z"/>
		<path d="M273.61,9l2.511-8.649H223.38l-30.19,139.39L163.72,0.35H112.4L84.52,139.21L54.34,0.35H0L54.34,193.9h52.56l30.72-141
			l30.38,141h52l14-48.19c-5.72-12.953-8.583-28.797-8.59-47.529c0-31.653,8.39-55.924,25.17-72.811
			C257.26,18.632,265.05,13.094,273.61,9z"/>
		<path d="M492.781,144.59c-4.721,6.054-12.697,9.08-23.932,9.08c-15.84,0-26.625-7.623-32.359-22.87
			c-3.146-8.159-4.721-18.949-4.721-32.369c0-14.087,1.574-25.381,4.721-33.881c5.953-16,17.023-24,33.211-24
			c11.332,0,19.703,3.7,25.109,11.101c3.723,5.535,6.09,11.869,6.91,18.49h49.08c-2.668-26.113-11.334-44.327-26-54.641
			C510.132,5.186,491.314,0.02,468.339,0C441.3,0,420.093,8.743,404.72,26.23c-4.104,4.704-7.646,9.869-10.561,15.39
			c5.533,9.839,9.207,20.611,10.84,31.78c1.287,8.394,1.811,20.479,1.57,36.26H273.5c0.74,18.327,7.11,31.18,19.11,38.561
			c7.294,4.579,16.073,6.869,26.341,6.869h0.18c10.879,0,19.723-2.793,26.529-8.38c4.084-3.49,7.427-7.765,9.83-12.569h48.59
			c-0.869,7.34-3.91,14.76-9,22.25c2.195,3.932,4.693,7.686,7.471,11.229c13.912,17.486,35.623,26.23,65.129,26.23
			c29.508,0,51.777-10.48,66.811-31.44c9.42-13,14.693-26.787,15.82-41.36h-48.93C500.367,130.69,497.5,138.537,492.781,144.59z"/>
		<path fill="#FFFFFF" d="M274.86,78.15h82.31c-0.873-12.667-5.116-22.29-12.729-28.87s-17.06-9.863-28.34-9.85h-0.19
			c-12.26,0-21.766,3.479-28.52,10.439s-10.994,16.387-12.72,28.28H274.86z"/>
		<path fill="#FFFFFF" d="M273.61,9l2.511-8.649H223.38l-30.19,139.39L163.72,0.35H112.4L84.52,139.21L54.34,0.35H0L54.34,193.9
			h52.56l30.72-141l30.38,141h52l14-48.19c-5.72-12.953-8.583-28.797-8.59-47.529c0-31.653,8.39-55.924,25.17-72.811
			C257.26,18.632,265.05,13.094,273.61,9z"/>
		<path fill="#FFFFFF" d="M492.781,144.59c-4.721,6.054-12.697,9.08-23.932,9.08c-15.84,0-26.625-7.623-32.359-22.87
			c-3.146-8.159-4.721-18.949-4.721-32.369c0-14.087,1.574-25.381,4.721-33.881c5.953-16,17.023-24,33.211-24
			c11.332,0,19.703,3.7,25.109,11.101c3.723,5.535,6.09,11.869,6.91,18.49h49.08c-2.668-26.113-11.334-44.327-26-54.641
			C510.132,5.186,491.314,0.02,468.339,0C441.3,0,420.093,8.743,404.72,26.23c-4.104,4.704-7.646,9.869-10.561,15.39
			c5.533,9.839,9.207,20.611,10.84,31.78c1.287,8.394,1.811,20.479,1.57,36.26H273.5c0.74,18.327,7.11,31.18,19.11,38.561
			c7.294,4.579,16.073,6.869,26.341,6.869h0.18c10.879,0,19.723-2.793,26.529-8.38c4.084-3.49,7.427-7.765,9.83-12.569h48.59
			c-0.869,7.34-3.91,14.76-9,22.25c2.195,3.932,4.693,7.686,7.471,11.229c13.912,17.486,35.623,26.23,65.129,26.23
			c29.508,0,51.777-10.48,66.811-31.44c9.42-13,14.693-26.787,15.82-41.36h-48.93C500.367,130.69,497.5,138.537,492.781,144.59z"/>
	</g>
</g>
</svg>
