<?xml version="1.0" encoding="utf-8"?>
<!-- Generator: Adobe Illustrator 16.0.0, SVG Export Plug-In . SVG Version: 6.00 Build 0)  -->
<!DOCTYPE svg PUBLIC "-//W3C//DTD SVG 1.1//EN" "http://www.w3.org/Graphics/SVG/1.1/DTD/svg11.dtd">
<svg version="1.1" id="Layer_1" xmlns="http://www.w3.org/2000/svg" xmlns:xlink="http://www.w3.org/1999/xlink" x="0px" y="0px"
	 width="92.922px" height="36.192px" viewBox="3.539 31.905 92.922 36.192" enable-background="new 3.539 31.905 92.922 36.192"
	 xml:space="preserve">
<g>
	<path fill="#FFFFFF" d="M61.462,39.211c-1.012-1.049-2.347-1.573-4.004-1.574c-1.545,0-2.841,0.516-3.892,1.546
		c-1.051,1.031-1.739,2.431-2.07,4.198H62.98C62.98,41.65,62.475,40.26,61.462,39.211z"/>
	<path fill="#FFFFFF" d="M36.356,50.072L31.13,32.199h-8.3l-5.18,17.873l-5.274-17.873H3.539l9.619,26.42h8.593l5.082-16.311
		l5.031,16.311h16.135c-0.07-0.1-0.31-0.204-0.369-0.232c-0.888-0.404-2.259-1.992-2.589-2.376
		c-1.149-1.329-1.824-2.837-2.203-3.888c-0.335-0.925-0.586-1.878-0.751-2.847c-0.17-1.036-0.254-2.085-0.251-3.136
		c0-3.055,0.644-5.75,1.932-8.088c1.289-2.338,3.111-4.141,5.466-5.411c0.292-0.157,0.589-0.304,0.892-0.442H41.63L36.356,50.072z"
		/>
	<path fill="#FFFFFF" d="M94.92,38.376c-1.023-2.067-2.464-3.663-4.32-4.786c-1.856-1.124-4.004-1.685-6.447-1.685
		c-3.256,0-5.844,1.237-7.764,3.712v-3.418h-11.6c-0.004,0.003-0.006,0.009-0.006,0.014c-0.012,0.063,0.232,0.115,0.746,0.386
		c0.34,0.18,0.664,0.382,0.977,0.604c0.414,0.286,0.811,0.598,1.188,0.932c0.13,0.114,0.291,0.262,0.471,0.44
		c0.152,0.151,0.304,0.307,0.447,0.467c2.613,2.872,3.922,6.811,3.922,11.815c0,0.773-0.02,1.363-0.055,1.768H51.717
		c0.479,1.693,1.307,2.99,2.485,3.893c1.178,0.901,2.612,1.351,4.307,1.351c1.282,0.005,2.552-0.259,3.726-0.771
		c1.195-0.517,2.291-1.27,3.285-2.264l2.174,2.174l2.961,2.961c-0.87,0.979-1.866,1.838-2.961,2.559v9.57h8.695V55.204
		c0.911,1.18,2.094,2.125,3.442,2.76c1.349,0.636,2.854,0.953,4.517,0.953c2.41,0,4.535-0.556,6.375-1.661
		c1.838-1.105,3.256-2.67,4.248-4.688c0.994-2.021,1.49-4.365,1.49-7.036C96.461,42.83,95.948,40.445,94.92,38.376z M86.132,50.072
		c-1.06,1.205-2.437,1.808-4.127,1.808c-1.661,0-3.013-0.603-4.054-1.808c-1.043-1.204-1.563-2.782-1.563-4.736
		s0.521-3.541,1.562-4.762c1.043-1.222,2.396-1.832,4.056-1.831c1.691,0,3.067,0.609,4.125,1.831
		c1.057,1.221,1.585,2.808,1.585,4.762C87.718,47.29,87.188,48.868,86.132,50.072z"/>
</g>
</svg>
