<?xml version="1.0" encoding="utf-8"?>
<!-- Generator: Adobe Illustrator 16.0.0, SVG Export Plug-In . SVG Version: 6.00 Build 0)  -->
<!DOCTYPE svg PUBLIC "-//W3C//DTD SVG 1.1//EN" "http://www.w3.org/Graphics/SVG/1.1/DTD/svg11.dtd">
<svg version="1.1" id="Layer_1" xmlns="http://www.w3.org/2000/svg" xmlns:xlink="http://www.w3.org/1999/xlink" x="0px" y="0px"
	 width="50px" height="50px" viewBox="0 0 50 50" enable-background="new 0 0 50 50" xml:space="preserve">
<g>
	<path fill="#FFFFFF" d="M27.563,4.728c-0.215-0.447-0.549-0.83-0.965-1.104c-0.179-0.109-0.463-0.258-1.389-0.407
		c-1.47-0.235-1.729-0.022-2.737-0.315c-0.429-0.123-0.842-0.297-1.229-0.52c-0.295-0.173-0.574-0.369-0.835-0.591
		c0.063,0.067,0.157,0.167,0.278,0.278l0.072,0.063c0.693,0.618,1.828,0.921,1.828,0.921c0.577,0.146,1.169,0.221,1.764,0.227
		c0.127,0.003,0.271,0.003,0.494,0.02c0.414,0.032,0.892,0.106,1.183,0.196C26.782,3.728,27.312,4.373,27.563,4.728z"/>
	<polygon fill="#FFFFFF" points="36.062,49.545 36.062,49.535 35.937,49.545 	"/>
	<polygon fill="#FFFFFF" points="36.088,49.531 36.062,49.516 36.062,49.535 	"/>
	<path fill="#FFFFFF" d="M22.615,13.208L22.008,7.82c0.136-0.023,0.267-0.068,0.388-0.133c0.721-0.381,1.016-1.32,0.631-2.004
		c-0.396-0.68-1.258-0.928-1.954-0.562c-0.37,0.19-0.638,0.536-0.733,0.942l-4.828-0.808c0.031-0.284-0.025-0.573-0.164-0.825
		c-0.377-0.679-1.242-0.9-1.939-0.498c-0.415,0.246-0.667,0.691-0.663,1.174L7.669,5.541c-0.18-0.693-0.887-1.111-1.58-0.934
		C5.982,4.634,5.878,4.676,5.781,4.732c-0.627,0.357-0.854,1.15-0.512,1.787c0.31,0.575,1.086,0.808,1.705,0.522l1.644,2.704
		C8.595,9.758,8.573,9.769,8.55,9.783c-0.871,0.5-1.189,1.761-0.681,2.678c0.51,0.918,1.776,1.301,2.685,0.816l1.729,2.884
		c-0.921,0.575-1.257,1.991-0.679,2.957c0.619,1.038,1.963,1.378,3,0.759c0.836-0.499,1.242-1.488,0.998-2.432l5.246-1.579
		c0.037,0.108,0.084,0.216,0.145,0.315c0.592,0.975,1.863,1.314,2.804,0.752c0.917-0.55,1.242-1.832,0.696-2.754
		C24.097,13.534,23.373,13.158,22.615,13.208z M8.786,9.668L7.131,6.958c0.407-0.267,0.63-0.738,0.572-1.222l5.052-0.453
		c0.021,0.16,0.072,0.314,0.148,0.458c0.094,0.169,0.221,0.315,0.373,0.434l-2.584,3.611C10.115,9.437,9.402,9.394,8.786,9.668z
		 M14.458,16.058c-0.644-0.313-1.396-0.303-2.03,0.026l-1.729-2.887c0.885-0.577,1.186-1.804,0.649-2.732
		c-0.131-0.228-0.307-0.426-0.516-0.582l2.585-3.614c0.431,0.264,0.987,0.307,1.413,0.051c0.038-0.023,0.074-0.049,0.109-0.074
		l1.69,2.13c-0.673,0.574-0.876,1.649-0.416,2.492c0.168,0.302,0.415,0.552,0.716,0.723L14.458,16.058z M20.8,15.708l-5.25,1.582
		c-0.044-0.125-0.1-0.245-0.164-0.358c-0.188-0.328-0.457-0.601-0.781-0.793l2.476-4.47c0.601,0.291,1.346,0.301,1.94-0.044
		c0.082-0.048,0.158-0.104,0.228-0.167l2.094,2.312C20.859,14.291,20.659,15.013,20.8,15.708z M21.681,13.496
		c-0.078,0.046-0.15,0.099-0.22,0.158l-2.094-2.314c0.53-0.59,0.716-1.64,0.349-2.357c-0.499-0.975-1.779-1.347-2.783-0.812
		c-0.058,0.031-0.113,0.063-0.166,0.103l-1.694-2.135c0.204-0.19,0.348-0.439,0.411-0.714l4.826,0.808
		c-0.024,0.283,0.032,0.566,0.166,0.817c0.264,0.507,0.795,0.814,1.365,0.791l0.605,5.386
		C22.176,13.263,21.917,13.355,21.681,13.496z"/>
	<path fill="#FFFFFF" d="M28.265,5.287c-0.011,0.005-0.021,0.008-0.033,0.012c0.188-0.001,0.373-0.037,0.549-0.105
		c0.381-0.16,0.675-0.666,0.631-1.113c-0.066-0.682-0.896-1.047-1.266-1.212c-0.322-0.144-0.502-0.156-0.808-0.212
		c0.806,0.42,1.365,0.892,1.382,1.396C28.726,4.208,28.701,5.111,28.265,5.287z"/>
	<path fill="#FFFFFF" d="M42.315,28.924h-0.002c1.69-2.895,2.58-6.186,2.576-9.539c0.002-2.817-0.625-5.603-1.84-8.146
		C40.004,4.861,33.495,0.456,25.954,0.456c-1.37-0.001-2.737,0.147-4.075,0.44c1.021,0.232,3.414,0.803,5.078,1.574
		c0.549,0.12,0.667,0.082,1.047,0.211c0.339,0.111,1.527,0.51,1.638,1.354c0.066,0.513-0.281,1.057-0.717,1.295
		c-0.148,0.081-0.311,0.135-0.478,0.159c0.29,0.117,0.569,0.266,0.831,0.439c0.857,0.588,1.121,1.586,1.08,1.61
		C30.315,7.566,30,6.822,29.181,6.267c-0.324-0.221-0.685-0.385-1.063-0.486c0.297,0.242,0.572,0.512,0.824,0.803
		c1.767,2.12,2.885,4.495,2.772,7.455c-0.022,0.622,0.228,1.396,0.618,1.859c0.855,1.024,1.846,1.945,2.855,2.815
		c0.912,0.785,0.968,0.935,0.074,1.783c-0.219,0.208-0.525,0.375-0.636,0.632c-0.124,0.29-0.22,0.83-0.069,0.969
		c0.971,0.901,0.496,1.523-0.285,2.142c-0.072,0.058-0.115,0.157-0.25,0.349c0.813,0.645,0.903,1.268,0.101,1.956
		c-0.171,0.148-0.24,0.545-0.202,0.805c0.074,0.5,0.258,0.984,0.396,1.477c0.379,1.355,0.174,1.914-1.185,2.26
		c-1.337,0.346-2.731,0.518-4.108,0.625c-2.467,0.195-3.049,0.826-3.006,3.418c0.063,3.963,6.637,12.369,10.039,14.391
		c0.004-0.971,0.006-1.939,0.008-2.902C36.972,40.365,39.095,34.354,42.315,28.924z"/>
	<path fill="#FFFFFF" d="M14.707,26.857l-0.009-0.006c-0.265-0.186-0.542-0.354-0.81-0.527l-0.074-0.049
		c-0.412-0.271-2.471-1.692-4.119-4.059c-1.676-2.408-1.784-4.826-2.268-4.764c-0.158,0.021-0.338,0.306-0.447,1.43
		c-0.01,2.52,0.406,4.453,0.779,5.734c1.135,3.905,2.916,5.583,5.133,10.997c0.283,0.688,0.705,1.771,1.137,3.146
		c0.881-3.939,1.539-6.955,1.961-8.684c0.07-0.297,0.216-0.879,0.042-1.537c0.145,0.006,0.259,0.006,0.334,0.006
		c1.819,0.004,3.459,0.488,3.481,0.385C19.879,28.768,15.961,27.68,14.707,26.857z"/>
</g>
</svg>
